<svg 
 xmlns="http://www.w3.org/2000/svg"
 xmlns:xlink="http://www.w3.org/1999/xlink"
 width="38px" height="32px">
<path fill-rule="evenodd"  fill="rgb(255, 255, 255)"
 d="M36.412,24.514 L31.109,30.993 C30.162,32.150 28.440,32.335 27.272,31.404 C26.914,31.119 26.650,30.762 26.481,30.371 C25.502,31.257 23.986,31.331 22.925,30.486 C22.557,30.194 22.288,29.824 22.120,29.421 C21.140,30.198 19.712,30.230 18.698,29.422 C17.530,28.492 17.349,26.793 18.297,25.636 L21.501,21.721 L19.458,20.094 C19.140,19.841 19.091,19.380 19.349,19.064 C19.607,18.749 20.074,18.699 20.393,18.952 L22.436,20.579 L24.262,18.347 L15.565,11.421 L13.738,13.653 L15.780,15.279 C16.099,15.533 16.148,15.994 15.890,16.309 C15.632,16.625 15.164,16.675 14.846,16.421 L12.803,14.795 L9.599,18.710 C8.652,19.867 6.930,20.052 5.761,19.121 C4.748,18.314 4.478,16.930 5.042,15.822 C4.606,15.745 4.183,15.563 3.816,15.270 C2.755,14.426 2.508,12.948 3.180,11.817 C2.757,11.737 2.348,11.557 1.990,11.273 C0.821,10.342 0.641,8.643 1.588,7.486 L6.891,1.008 C7.838,-0.150 9.560,-0.334 10.729,0.596 C11.086,0.881 11.351,1.238 11.519,1.629 C12.499,0.743 14.015,0.669 15.075,1.513 C15.443,1.806 15.713,2.175 15.880,2.580 C16.860,1.802 18.289,1.770 19.302,2.577 C20.471,3.508 20.651,5.207 19.704,6.364 L16.499,10.279 L25.197,17.205 L28.401,13.290 C29.349,12.132 31.070,11.948 32.239,12.879 C33.253,13.685 33.522,15.070 32.958,16.178 C33.394,16.254 33.817,16.437 34.184,16.729 C35.245,17.574 35.492,19.052 34.820,20.183 C35.243,20.262 35.652,20.442 36.010,20.727 C37.179,21.658 37.359,23.356 36.412,24.514 ZM9.794,1.738 C9.261,1.313 8.476,1.398 8.044,1.925 L2.742,8.404 C2.310,8.932 2.392,9.707 2.925,10.131 C3.457,10.555 4.243,10.471 4.674,9.943 L9.977,3.465 C10.409,2.937 10.327,2.162 9.794,1.738 ZM14.141,2.655 C13.608,2.231 12.823,2.315 12.391,2.842 L4.567,12.401 C4.135,12.929 4.217,13.704 4.750,14.128 C5.283,14.552 6.068,14.469 6.500,13.941 L14.324,4.382 C14.756,3.854 14.674,3.080 14.141,2.655 ZM18.551,5.446 C18.983,4.918 18.900,4.143 18.367,3.719 C17.834,3.295 17.049,3.378 16.617,3.907 L6.512,16.252 C6.081,16.780 6.163,17.555 6.696,17.979 C7.229,18.403 8.014,18.319 8.446,17.792 L18.551,5.446 ZM31.304,14.020 C30.772,13.596 29.987,13.680 29.555,14.208 L19.450,26.554 C19.018,27.082 19.100,27.856 19.633,28.281 C20.166,28.705 20.951,28.621 21.383,28.093 L31.488,15.747 C31.920,15.219 31.837,14.445 31.304,14.020 ZM33.250,17.871 C32.717,17.447 31.932,17.531 31.500,18.059 L23.676,27.618 C23.244,28.145 23.326,28.920 23.859,29.344 L23.860,29.345 C24.392,29.769 25.177,29.685 25.609,29.157 L33.433,19.598 C33.865,19.070 33.783,18.296 33.250,17.871 ZM35.076,21.869 C34.543,21.445 33.758,21.529 33.326,22.057 L28.023,28.535 C27.591,29.063 27.673,29.838 28.206,30.262 C28.739,30.686 29.524,30.602 29.956,30.074 L35.259,23.596 C35.691,23.068 35.608,22.293 35.076,21.869 ZM18.087,17.116 C18.404,17.369 18.454,17.831 18.196,18.146 C17.939,18.460 17.469,18.510 17.152,18.258 C16.834,18.005 16.785,17.542 17.043,17.228 C17.300,16.913 17.769,16.863 18.087,17.116 Z"/>
</svg>