<svg 
 xmlns="http://www.w3.org/2000/svg"
 xmlns:xlink="http://www.w3.org/1999/xlink"
 width="14px" height="13px">
<path fill-rule="evenodd"  fill="rgb(255, 182, 8)"
 d="M7.676,0.406 L9.257,3.513 C9.367,3.729 9.579,3.879 9.825,3.913 L13.360,4.411 C13.979,4.499 14.226,5.237 13.778,5.660 L11.220,8.079 C11.043,8.247 10.962,8.489 11.004,8.727 L11.607,12.141 C11.713,12.739 11.066,13.195 10.512,12.913 L7.351,11.301 C7.131,11.189 6.868,11.189 6.648,11.301 L3.487,12.913 C2.934,13.196 2.286,12.739 2.392,12.141 L2.996,8.727 C3.038,8.489 2.957,8.247 2.779,8.079 L0.221,5.660 C-0.226,5.237 0.021,4.499 0.640,4.411 L4.174,3.913 C4.420,3.879 4.633,3.729 4.743,3.513 L6.323,0.406 C6.600,-0.138 7.400,-0.138 7.676,0.406 Z"/>
</svg>